<svg viewBox="0 0 125 125">
    <path
        d="M95,55.4155197c-0.2007599-3.5877228-2.3583679-6.4227943-3.9892426-9.3332253  c-4.5411301-7.3008423-9.1573639-14.4513149-13.2971497-21.9027138c-2.1325455-3.7131195-4.0644226-7.5015984-6.4981537-11.1646004  c-1.2293625-1.7562656-2.6593704-3.7884798-5.1432343-4.6665287c-4.8672867-1.8064833-8.3044701,3.4120274-11.8670387,5.2185106  c-6.7741051,3.1862116-10.0858803-5.394208-16.684288-6.1970639c-4.4657707-0.5518966-12.5946293-1.6557612-14.3005924,4.0393691  c-0.7528229,3.462245-1.5806541,7.1253147-2.4588852,10.5625019c-2.2329712,1.1541653-4.3905792,2.358366-6.4979877,3.8136234  c-1.1038637,0.8277473-2.2329702,1.6057262-3.2365828,3.0356579c-0.9031086,1.5053902-1.0034447,3.0608997-1.078805,4.4407978  c-0.2759485,5.1934509,0.6021004,10.8384476,0.6021004,15.8312111c-0.3010082,2.8099289-1.6557617,3.7381783-4.2900763,5.1431503  c-3.0860441,2.5340691,0.2005877,6.3727608,2.358366,8.1288605c4.089489,3.562748,8.304471,6.6737709,12.39396,10.0858803  c2.7848663,2.5591202,6.7238865,4.0392838,7.8778839,7.8779678c0.9784698,2.609169,0.3513107,4.9175034,1.0287685,7.7775497  c2.910265,8.0033569,13.798914,4.4659424,19.5944653,2.4337311c5.3941231-1.4803238,9.3833618-6.4981613,11.7417259-11.1395493  c1.2795601-2.0322113,3.0607224-3.3369217,5.3439941-3.9138718c7.3259048,3.0356598,14.8777161,2.3583679,15.4547577-7.1504745  c0.1255646-1.8566055,0-3.6629181-0.3010941-5.4693871C86.595108,62.1142616,94.7240524,60.9351196,95,55.4155197z   M91.7133713,57.2720375c-3.0609894,2.2079086-7.7023544,2.8602295-11.5159912,3.3869667  c-5.4442444,0.4015083-11.2397919,0.6523972-16.5837784-0.6021042c-0.0251465-0.0500336-0.0251465-0.1505508-0.0251465-0.2007561  c1.304718-11.0390358,2.4587021-22.2789001,1.2795639-33.4184418c-0.0502167-0.4015121-0.4013443-0.7026043-0.8028564-0.652317  c-0.4013481,0.0250587-0.7024422,0.3761997-0.6774635,0.7777119c0.9033699,10.8635941-0.2507935,21.6267662-1.8314552,32.3899384  c-0.0751953,0.9031105-0.3010101,2.2328873,0.7777977,2.910347c5.4255257,1.8871613,11.3143806,1.4943085,17.004261,1.4400749  c1.613533,9.5394821-2.003891,14.1161499-12.0371475,10.0654449c-5.0396347-2.4180984-10.0500069-5.2944641-15.4421463-7.0109024  c-0.3758469-0.0890884-0.7672348-0.1246185-1.2586212,0.0980148c-0.4301033,0.1853027-0.6292267,0.6523972-0.7490387,0.9745178  c-1.0527191,4.562233-1.1082497,9.1485214-1.7999573,13.7238159c-0.1340752,0.8514404,1.1808548,1.1038666,1.3670311,0.263237  c1.06353-4.1562729,1.3587875-8.5436707,2.406517-12.6548691c3.7508087,1.3223114,7.9896393,3.597847,11.7972603,5.4628601  c-0.4858017,0.2463303-0.9297142,0.5046005-1.2630806,0.7342834c-3.4120293,2.3583679-4.6413879,6.9245605-7.325901,9.6090927  c-3.5125313,3.5375061-9.0070763,4.8422241-13.7989998,5.6450806c-2.4587898,0.326149-5.1182594,0.3761978-6.9245605-0.6523972  c-2.2832718-1.2544174-2.0071526-3.3869705-2.2079124-5.8709183c-0.2759457-2.8348999-1.2293568-5.7201843-3.3869667-7.928009  C22.2919006,70.970787,15.994669,66.0281372,9.9983616,60.8346825c-1.2042847-1.1539993-3.91396-3.4623299-2.4587021-4.9174194  c6.7489605-2.6845322,5.1932688-9.0069885,4.8672857-14.7022896c0.1002512-3.5625801-0.7026052-7.8778,0.7024355-11.089323  c2.2448959-2.6354256,5.9807663-4.4389133,9.1155682-6.1054745c1.7759094-0.7445526,3.8062534-1.8092251,5.6367569-2.6253853  c1.9819965-0.853159,6.1720047-2.9355755,8.3546753-3.6380253c1.4301147,1.6308708,1.5806503,4.0895729,1.8063965,6.2973976  c0.2509766,7.8529091-1.7060623,15.7558537-3.9390335,23.2826099c-0.1756134,0.5017662,0.1004181,1.0286865,0.6021004,1.1792259  c0.4767036,0.1505547,1.0036125-0.1253929,1.1793098-0.6021004c2.7597084-9.6593895,6.698658-20.3473701,3.0106812-30.2825298  c-0.4767036-0.8782177-1.2795601-2.2329712-2.4837723-2.2078266c-0.5520668,0.0502167-0.652401,0.1505527-1.1039505,0.2759476  c-3.6466026,1.3593807-8.0688534,3.5505581-11.8696938,5.207613c0.4215927-2.5100307,0.915905-5.0919065,1.3823013-7.5409193  c1.0037117-5.5698061,8.3046417-4.3905811,12.2937088-3.7883959c4.5913353,0.7274952,6.7489586,4.1648483,10.9137115,6.0465097  c2.2831879,0.8026876,4.8171692,0.7274961,6.9999161-0.2761173c3.76334-1.6055441,6.1468468-6.4227953,10.4118576-5.0929327  c1.6559372,0.5518131,2.9606552,2.2078276,4.0895767,3.9138765c6.4478531,10.9387827,12.6449127,22.4295387,19.5695724,33.0924568  c1.4299469,2.5589523,3.3618164,5.2686272,3.5877228,8.1287727C92.6667786,56.1681747,92.3656845,56.6950951,91.7133713,57.2720375z   M48.6103935,57.7487411c0.326149,0.2508888,0.4013443,0.7024384,0.2005844,1.0537453  c-3.2113533,4.5661926-6.1718216,9.9353294-11.1645126,13.0965614c-0.7528229,0.451561-2.6093407,0.752655-3.3871384-0.4516449  c-0.5769577-0.6773758-1.4049568-2.132637-1.8816605-2.910347c-1.7562656-3.0107727-3.888731-7.0751991-5.3439903-9.6843719  c-1.0034447,0.2007599-2.358366,0.7274971-3.3366661,0.8280144c-0.3262348,0.0500336-0.7779655,0.0249786-1.1541653-0.0753593  c-0.3010921-0.0502167-0.8530731-0.7777977-0.8028564-1.1039467c-0.0502167-6.8492012,0.551897-13.8240623-0.0753613-20.5981636  c-0.1003361-0.9282646,1.3549232-1.1288414,1.4803181-0.2005844c0.9534111,6.5481911,0.5769577,13.1968994,0.752655,19.7199478  c0.7025204-0.1505547,1.6559296-0.4767036,2.1075745-0.6021042c0.8028564-0.1253929,1.3547535-0.6021004,2.358366,0.1505508  c2.3834381,3.2615738,5.168293,9.7596436,7.5518188,13.0963974c0.0249748,0.0502167,0.0751915,0.1255646,0.0751915,0.1255646  c0.1253967,0,0.451561-0.0251389,0.7526512-0.2007523c4.5161591-2.8099289,7.4514809-7.7777176,10.7883987-12.0677948  C47.7823792,57.5731316,48.2842369,57.4979515,48.6103935,57.7487411z M56.0102921,25.807188  c0.2913895,1.3302002-0.5621033,2.5066013-1.172699,3.5657463c-1.4920883,2.3781948-3.4124641,4.5357189-5.2781639,6.5418453  c-0.5137024,0.5761871-1.4757767-0.1060867-1.1104736-0.7770195c1.4522476-2.7574043,3.9993629-6.5959187,4.9502792-8.5759487  c-0.3176575-0.6970348-2.669075-1.857811-3.6035995-2.3836079c-1.5550728-0.8051758-3.2026939-1.4731178-4.8790436-2.1461906  c-0.4478607-0.1753464-0.6687965-0.6806393-0.4934349-1.1285019c0.1490059-0.3805733,0.5442467-0.5960121,0.9320335-0.5449371  c3.3404503,0.5021992,6.6222725,1.6662388,9.3876495,3.6942329C55.1846809,24.4029217,55.762146,24.9599667,56.0102921,25.807188z" />
    </path>
</svg>